<svg id="visual" viewBox="0 0 1960 940" width="1960" height="940" xmlns="http://www.w3.org/2000/svg" xmlns:xlink="http://www.w3.org/1999/xlink" version="1.1"><path d="M0 151L178 189L356 142L535 104L713 133L891 198L1069 170L1247 198L1425 95L1604 86L1782 208L1960 217L1960 0L1782 0L1604 0L1425 0L1247 0L1069 0L891 0L713 0L535 0L356 0L178 0L0 0Z" fill="#00cc8e"></path><path d="M0 302L178 274L356 321L535 264L713 227L891 339L1069 339L1247 368L1425 245L1604 236L1782 368L1960 311L1960 215L1782 206L1604 84L1425 93L1247 196L1069 168L891 196L713 131L535 102L356 140L178 187L0 149Z" fill="#00b98a"></path><path d="M0 462L178 433L356 462L535 424L713 377L891 424L1069 396L1247 509L1425 368L1604 349L1782 452L1960 396L1960 309L1782 366L1604 234L1425 243L1247 366L1069 337L891 337L713 225L535 262L356 319L178 272L0 300Z" fill="#00a784"></path><path d="M0 828L178 762L356 603L535 697L713 753L891 706L1069 772L1247 772L1425 715L1604 603L1782 678L1960 744L1960 394L1782 450L1604 347L1425 366L1247 507L1069 394L891 422L713 375L535 422L356 460L178 431L0 460Z" fill="#00957c"></path><path d="M0 941L178 941L356 941L535 941L713 941L891 941L1069 941L1247 941L1425 941L1604 941L1782 941L1960 941L1960 742L1782 676L1604 601L1425 713L1247 770L1069 770L891 704L713 751L535 695L356 601L178 760L0 826Z" fill="#038373"></path></svg>