<svg id="visual" viewBox="0 0 1960 940" width="1960" height="940" xmlns="http://www.w3.org/2000/svg" xmlns:xlink="http://www.w3.org/1999/xlink" version="1.1"><path d="M0 161L178 161L178 198L356 198L356 227L535 227L535 170L713 170L713 123L891 123L891 114L1069 114L1069 86L1247 86L1247 133L1425 133L1425 161L1604 161L1604 198L1782 198L1782 227L1960 227L1960 180L1960 0L1960 0L1782 0L1782 0L1604 0L1604 0L1425 0L1425 0L1247 0L1247 0L1069 0L1069 0L891 0L891 0L713 0L713 0L535 0L535 0L356 0L356 0L178 0L178 0L0 0Z" fill="#fa7268"></path><path d="M0 603L178 603L178 480L356 480L356 509L535 509L535 415L713 415L713 321L891 321L891 452L1069 452L1069 546L1247 546L1247 283L1425 283L1425 424L1604 424L1604 556L1782 556L1782 565L1960 565L1960 593L1960 178L1960 225L1782 225L1782 196L1604 196L1604 159L1425 159L1425 131L1247 131L1247 84L1069 84L1069 112L891 112L891 121L713 121L713 168L535 168L535 225L356 225L356 196L178 196L178 159L0 159Z" fill="#ea5e66"></path><path d="M0 809L178 809L178 715L356 715L356 687L535 687L535 697L713 697L713 781L891 781L891 678L1069 678L1069 734L1247 734L1247 687L1425 687L1425 687L1604 687L1604 706L1782 706L1782 715L1960 715L1960 753L1960 591L1960 563L1782 563L1782 554L1604 554L1604 422L1425 422L1425 281L1247 281L1247 544L1069 544L1069 450L891 450L891 319L713 319L713 413L535 413L535 507L356 507L356 478L178 478L178 601L0 601Z" fill="#d84a64"></path><path d="M0 866L178 866L178 828L356 828L356 772L535 772L535 838L713 838L713 838L891 838L891 809L1069 809L1069 828L1247 828L1247 838L1425 838L1425 847L1604 847L1604 772L1782 772L1782 856L1960 856L1960 819L1960 751L1960 713L1782 713L1782 704L1604 704L1604 685L1425 685L1425 685L1247 685L1247 732L1069 732L1069 676L891 676L891 779L713 779L713 695L535 695L535 685L356 685L356 713L178 713L178 807L0 807Z" fill="#c53762"></path><path d="M0 941L178 941L178 941L356 941L356 941L535 941L535 941L713 941L713 941L891 941L891 941L1069 941L1069 941L1247 941L1247 941L1425 941L1425 941L1604 941L1604 941L1782 941L1782 941L1960 941L1960 941L1960 817L1960 854L1782 854L1782 770L1604 770L1604 845L1425 845L1425 836L1247 836L1247 826L1069 826L1069 807L891 807L891 836L713 836L713 836L535 836L535 770L356 770L356 826L178 826L178 864L0 864Z" fill="#b0235f"></path></svg>