<svg id="visual" viewBox="0 0 1960 940" width="1960" height="940" xmlns="http://www.w3.org/2000/svg" xmlns:xlink="http://www.w3.org/1999/xlink" version="1.1"><rect x="0" y="0" width="1960" height="940" fill="#002233"></rect><path d="M0 706L46.7 692.7C93.3 679.3 186.7 652.7 280 643.5C373.3 634.3 466.7 642.7 560 662C653.3 681.3 746.7 711.7 840 717.5C933.3 723.3 1026.7 704.7 1120 715.8C1213.3 727 1306.7 768 1400 781.2C1493.3 794.3 1586.7 779.7 1680 769.7C1773.3 759.7 1866.7 754.3 1913.3 751.7L1960 749L1960 941L1913.3 941C1866.7 941 1773.3 941 1680 941C1586.7 941 1493.3 941 1400 941C1306.7 941 1213.3 941 1120 941C1026.7 941 933.3 941 840 941C746.7 941 653.3 941 560 941C466.7 941 373.3 941 280 941C186.7 941 93.3 941 46.7 941L0 941Z" fill="#0066FF" stroke-linecap="round" stroke-linejoin="miter"></path></svg>